<?xml version="1.0" encoding="UTF-8" standalone="no"?>
<svg
   xmlns:dc="http://purl.org/dc/elements/1.1/"
   xmlns:cc="http://creativecommons.org/ns#"
   xmlns:rdf="http://www.w3.org/1999/02/22-rdf-syntax-ns#"
   xmlns:svg="http://www.w3.org/2000/svg"
   xmlns="http://www.w3.org/2000/svg"
   xmlns:xlink="http://www.w3.org/1999/xlink"
   xmlns:sodipodi="http://sodipodi.sourceforge.net/DTD/sodipodi-0.dtd"
   xmlns:inkscape="http://www.inkscape.org/namespaces/inkscape"
   id="uuid-3c6bd24d-d7e8-4fcf-a5d9-5ef1047529d7"
   data-name="Layer 6"
   viewBox="0 0 240.164 240.71434"
   version="1.1"
   sodipodi:docname="novaforge_icon_dark.svg"
   width="240.164"
   height="240.71432"
   inkscape:version="1.0.2-2 (e86c870879, 2021-01-15)">
  <metadata
     id="metadata1130">
    <rdf:RDF>
      <cc:Work
         rdf:about="">
        <dc:format>image/svg+xml</dc:format>
        <dc:type
           rdf:resource="http://purl.org/dc/dcmitype/StillImage" />
        <dc:title></dc:title>
      </cc:Work>
    </rdf:RDF>
  </metadata>
  <sodipodi:namedview
     pagecolor="#ffffff"
     bordercolor="#666666"
     borderopacity="1"
     objecttolerance="10"
     gridtolerance="10"
     guidetolerance="10"
     inkscape:pageopacity="0"
     inkscape:pageshadow="2"
     inkscape:window-width="1920"
     inkscape:window-height="1017"
     id="namedview1128"
     showgrid="false"
     inkscape:zoom="1.1256448"
     inkscape:cx="76.862935"
     inkscape:cy="153.17158"
     inkscape:window-x="2152"
     inkscape:window-y="2757"
     inkscape:window-maximized="1"
     inkscape:current-layer="uuid-3c6bd24d-d7e8-4fcf-a5d9-5ef1047529d7"
     inkscape:document-rotation="0" />
  <defs
     id="defs1111">
    <style
       id="style1096">
      .uuid-64ae1adb-b5a6-44a2-a95a-37e37b00bcd0 {
        fill: url(#uuid-cc058d44-2eb1-43f6-9533-dffe7b5ab1e5);
      }

      .uuid-29b61939-c28f-4c9b-855b-2b52c2bb0dfc {
        fill: url(#uuid-d058a080-0785-4a78-8e5f-0be86008cb12);
      }

      .uuid-70f9c3c7-a561-4911-824f-1199e45b9e7b {
        fill: url(#uuid-114c749a-7bc1-4668-ac2a-cb5f53a7b31e);
      }

      .uuid-4cd1f7d9-9726-4c93-8323-6a96f2a07115 {
        fill: url(#uuid-019ae6b8-ed3f-4add-ae40-745f32f4b430);
      }

      .uuid-d4a42b04-4d0c-425a-921b-464dcfebfb7c {
        fill: url(#uuid-315f032c-9669-4dfe-9801-ac8af1c7d1b8);
      }

      .uuid-bce64b09-2958-43a3-ba66-9a5c90b74bc6 {
        fill: url(#uuid-bd1d52b8-6624-4aa1-adeb-23674beaa517);
      }

      .uuid-a0bc2d40-61e5-4a76-be3d-f4c255714834 {
        fill: url(#uuid-8de70de0-1f45-4918-b33d-3dbd19b6cc4a);
      }
    </style>
    <linearGradient
       id="uuid-d058a080-0785-4a78-8e5f-0be86008cb12"
       x1="1145.9351"
       y1="188.105"
       x2="1433.631"
       y2="430.078"
       gradientUnits="userSpaceOnUse">
      <stop
         offset="0"
         stop-color="#8dc1dd"
         id="stop1098" />
      <stop
         offset=".577"
         stop-color="#7daae4"
         id="stop1100" />
      <stop
         offset="1"
         stop-color="#759fe8"
         id="stop1102" />
    </linearGradient>
    <linearGradient
       id="uuid-114c749a-7bc1-4668-ac2a-cb5f53a7b31e"
       x1="1128.335"
       y1="209.03101"
       x2="1416.031"
       y2="451.004"
       xlink:href="#uuid-d058a080-0785-4a78-8e5f-0be86008cb12" />
    <linearGradient
       id="uuid-bd1d52b8-6624-4aa1-adeb-23674beaa517"
       x1="1136.3311"
       y1="199.52499"
       x2="1424.027"
       y2="441.49701"
       xlink:href="#uuid-d058a080-0785-4a78-8e5f-0be86008cb12" />
    <linearGradient
       id="uuid-019ae6b8-ed3f-4add-ae40-745f32f4b430"
       x1="1144.327"
       y1="190.01801"
       x2="1432.0229"
       y2="431.98999"
       xlink:href="#uuid-d058a080-0785-4a78-8e5f-0be86008cb12" />
    <linearGradient
       id="uuid-cc058d44-2eb1-43f6-9533-dffe7b5ab1e5"
       x1="1146.3149"
       y1="187.653"
       x2="1434.011"
       y2="429.62601"
       gradientTransform="rotate(71.695,716.35159,-712.53223)"
       xlink:href="#uuid-d058a080-0785-4a78-8e5f-0be86008cb12" />
    <linearGradient
       id="uuid-315f032c-9669-4dfe-9801-ac8af1c7d1b8"
       x1="1142.8571"
       y1="191.765"
       x2="1430.553"
       y2="433.73801"
       xlink:href="#uuid-d058a080-0785-4a78-8e5f-0be86008cb12"
       gradientTransform="translate(-1167.833,-191.36267)" />
    <linearGradient
       id="uuid-8de70de0-1f45-4918-b33d-3dbd19b6cc4a"
       x1="1218.432"
       y1="101.91"
       x2="1506.1281"
       y2="343.88199"
       xlink:href="#uuid-d058a080-0785-4a78-8e5f-0be86008cb12"
       gradientTransform="translate(-1167.833,-191.36267)" />
  </defs>
  <path
     class="uuid-29b61939-c28f-4c9b-855b-2b52c2bb0dfc"
     d="m 202.579,96.564328 c 0.207,-0.079 0.938,-0.288 1.422,-0.427 4.44,-1.27 9.964,-2.851 9.964,-7.517 v -9.094 l -2.77,-3.328 H 107.187 v 5.094 H 93.41 l -2.602,7.66 7.607,2.584 0.751,-2.211 h 16.055 v -5.094 h 90.711 v 2.821 c -0.681,0.283 -1.917,0.724 -4.141,1.36 -0.871,0.249 -1.559,0.446 -2.093,0.651 -19.236,7.397 -51.666,24.168002 -52.738,53.377002 -0.595,16.232 9.66,27.396 19.947,32.753 v 8.988 h -17.26 c -0.432,-0.491 -0.844,-0.896 -1.321,-1.227 -12.164,-8.459 -35.261,-9.257 -47.524,-1.642 -0.897,0.556 -1.853,1.462 -3.208,2.782 -0.03,0.028 -0.06,0.057 -0.09,0.088 H 79.926 v -9.121 c 7.476,-4.111 15.591,-9.525 20.958,-18.199 4.576,-7.393 7.944,-19.237 2.375,-28.284 -4.286,-6.957 -11.073,-6.427 -16.028,-6.037 -0.875,0.068 -1.722,0.134 -2.526,0.163 l -0.523,-1.799 -3.097,0.082 c -17.851,0.461 -34.998,-6.541 -45.825,-18.759 l -0.958,-1.072 c -1.325,-1.479002 -4.533,-5.058002 -5.696,-6.810002 l 1.308,-1.912 -6.631,-4.522 -1.491,2.166 c -0.532,0.774 -1.422,2.07 -1.547,3.75 -0.075,1.002 -0.303,4.05 9.002,13.729002 11.661,13.159 29.837,21.105 48.931,21.47 l 0.349,1.2 2.586,0.354 c 2.305,0.315 4.557,0.139 6.742,-0.032 4.626,-0.36 6.923,-0.419 8.561,2.242 3.398,5.519 1.156,14.154 -2.364,19.843 -4.755,7.682 -12.434,12.46 -20.025,16.479 l -2.137,1.132 v 21.97 h 27.134 c 1.738,0 2.601,-0.839 4.168,-2.362 0.38,-0.37 1.539,-1.496 1.844,-1.715 9.363,-5.812 29.079,-5.131 38.53,1.294 0.184,0.2 0.437,0.52 0.585,0.702 0.716,0.879 1.695,2.082 3.653,2.082 h 27.135 v -22.188 l -2.421,-1.05 c -8.399,-3.636 -18.03,-12.691 -17.532,-26.241 0.902,-24.595 30.204,-39.485 47.591,-46.173002 z"
     id="path1113"
     style="fill:#f0f0f0;fill-opacity:1" />
  <polygon
     class="uuid-70f9c3c7-a561-4911-824f-1199e45b9e7b"
     points="1205.681,280.78 1209.385,280.78 1213.224,267.491 1209.393,267.491 1207.497,274.538 1205.461,267.491 1202.154,267.491 1200.15,274.428 1198.214,267.491 1194.29,267.491 1198.259,280.78 1201.828,280.78 1203.734,273.998 "
     id="polygon1115"
     style="fill:#f0f0f0;fill-opacity:1"
     transform="translate(-1167.833,-191.36267)" />
  <polygon
     class="uuid-bce64b09-2958-43a3-ba66-9a5c90b74bc6"
     points="1228.684,280.78 1232.523,267.491 1228.693,267.491 1226.795,274.538 1224.759,267.491 1221.453,267.491 1219.449,274.428 1217.513,267.491 1213.589,267.491 1217.557,280.78 1221.128,280.78 1223.033,273.998 1224.98,280.78 "
     id="polygon1117"
     style="fill:#f0f0f0;fill-opacity:1"
     transform="translate(-1167.833,-191.36267)" />
  <polygon
     class="uuid-4cd1f7d9-9726-4c93-8323-6a96f2a07115"
     points="1240.752,267.491 1238.748,274.428 1236.812,267.491 1232.888,267.491 1236.856,280.78 1240.427,280.78 1242.332,274 1244.279,280.78 1247.984,280.78 1251.823,267.491 1247.992,267.491 1246.095,274.538 1244.059,267.491 "
     id="polygon1119"
     style="fill:#f0f0f0;fill-opacity:1"
     transform="translate(-1167.833,-191.36267)" />
  <rect
     class="uuid-64ae1adb-b5a6-44a2-a95a-37e37b00bcd0"
     x="-57.729424"
     y="106.93571"
     width="4.5510001"
     height="4.5510001"
     transform="rotate(-71.695)"
     id="rect1121"
     style="fill:#f0f0f0;fill-opacity:1" />
  <path
     class="uuid-d4a42b04-4d0c-425a-921b-464dcfebfb7c"
     d="m 240.164,119.83233 c 0,-19.012 -4.451,-36.983002 -12.363,-52.932002 -0.019,0.009 -0.038,0.017 -0.057,0.027 -3.139,-6.499 -6.803,-12.638 -10.919,-18.29 -1.669,-1.106 -2.694,-0.912 -4.428,-0.749 -1.495,0.141 -3.448,0.54 -4.284,0.889 -1.694,0.706 -1.771,1.748 -2,3.41 15.332,18.897 23.92,42.213 23.92,68.445002 0,49.042 -32.111,90.578 -76.453,104.747 -10.333,3.198 -21.314,4.921 -32.698,4.921 -61.01,0 -110.469,-49.459 -110.469,-110.469 0,-11.383 1.723,-22.362002 4.92,-32.695002 14.168,-44.343 55.705,-76.456 104.748,-76.456 14.629,0 28.582,2.872 41.348,8.06 l 17.03,-1.739 c -13.481,-10.237 -31.264,-14.926 -48.825,-16.12799999 -2.891,-0.21 -5.808,-0.323 -8.752,-0.323 -0.092,0 -0.184,0.003 -0.276,0.003 -0.175,0 -0.35,-0.003 -0.524,-0.003 C 53.762,0.55032801 0,54.313328 0,120.63233 c 0,66.319 53.763,120.082 120.082,120.082 66.319,0 120.082,-53.763 120.082,-120.082 0,-0.146 0,-0.291 -0.01,-0.437 0,-0.121 0.01,-0.242 0.01,-0.363 z"
     id="path1123"
     style="fill:#f0f0f0;fill-opacity:1" />
  <path
     class="uuid-a0bc2d40-61e5-4a76-be3d-f4c255714834"
     d="m 163.49,24.700328 -1.481,4.194 0.963,1.66 c 0.453,0.779 1.14,1.382 1.958,1.735 1.54,0.833 3.209,1.546 4.826,2.237 0.596,0.255 1.183,0.505 1.743,0.755 2.85,1.269 5.713,2.51 8.576,3.75 1.317,0.571 2.634,1.141 3.949,1.715 0.311,2.364 0.611,4.731 0.91,7.097 0.379,2.997 0.758,5.994 1.162,8.988 l 0.143,1.099 c 0.104,0.817 0.21,1.634 0.342,2.489 0.15,1.057 0.463,3.256 2.774,4.154 0.299,0.117 0.867,0.293 1.564,0.293 1.208,0 2.805,-0.529 4.067,-2.812 0.447,-0.795 0.822,-1.634 1.154,-2.374 0.103,-0.231 0.205,-0.458 0.306,-0.679 1.324,-2.873 2.582,-5.806 3.798,-8.641 0.967,-2.255 1.96,-4.572 2.981,-6.841 1.871,-0.248 3.744,-0.485 5.618,-0.723 2.29,-0.29 4.579,-0.58 6.866,-0.889 l 1.077,-0.145 c 2.393,-0.321 4.868,-0.652 7.326,-1.092 l 2.362,-0.422 1.457,-4.129 -0.961,-1.66 c -0.452,-0.78 -1.141,-1.384 -1.959,-1.737 -1.208,-0.65 -2.484,-1.202 -3.721,-1.737 -0.446,-0.193 -0.886,-0.384 -1.308,-0.573 -2.732,-1.228 -5.514,-2.439 -8.204,-3.61 -1.897,-0.826 -3.842,-1.673 -5.772,-2.527 -0.15,-1.165 -0.298,-2.329 -0.446,-3.494 -0.719,-5.654 -1.462,-11.501 -2.344,-17.255 l -0.393,-2.56799999 -2.484,-0.761 c -1.561,-0.479 -2.781,0.022 -3.369,0.363 -0.714,0.413 -1.286,1.03299999 -1.647,1.76699999 -0.137,0.252 -0.244,0.486 -0.33,0.673 l -0.061,0.131 c -0.673,1.386 -1.296,2.79 -1.898,4.149 l -0.558,1.255 c -1.058,2.367 -2.092,4.745 -3.127,7.123 -0.84,1.932 -1.701,3.913 -2.573,5.877 -1.921,0.252 -3.844,0.496 -5.767,0.741 -4.942,0.628 -10.052,1.278 -15.084,2.052 l -2.438,0.375 z m 18.565,5.782 c 2.705,-0.344 5.41,-0.688 8.111,-1.052 l 2.276,-0.307 0.943,-2.093 c 1.212,-2.689 2.403,-5.427 3.554,-8.074 l 0.036,-0.084 c 0.127,0.989 0.252,1.973 0.376,2.951 0.247,1.94 0.494,3.88 0.745,5.818 l 0.299,2.294 2.111,0.947 c 2.654,1.191 5.356,2.367 7.968,3.505 0.067,0.029 0.134,0.058 0.201,0.088 -0.291,0.037 -0.583,0.074 -0.873,0.111 -2.643,0.335 -5.285,0.67 -7.924,1.034 l -0.81,0.112 -0.706,0.411 c -1.269,0.739 -1.744,1.871 -1.96,2.393 -1.159,2.519 -2.268,5.083 -3.343,7.586 -0.371,-2.93 -0.743,-5.861 -1.141,-8.788 l -0.312,-2.299 -2.124,-0.933 c -2.035,-0.894 -4.075,-1.779 -6.115,-2.662 -0.667,-0.29 -1.335,-0.579 -2.003,-0.869 0.231,-0.029 0.462,-0.059 0.692,-0.088 z"
     id="path1125"
     style="fill:#f0f0f0;fill-opacity:1" />
</svg>
