<?xml version="1.0" encoding="UTF-8" standalone="no"?>
<svg
   xmlns:dc="http://purl.org/dc/elements/1.1/"
   xmlns:cc="http://creativecommons.org/ns#"
   xmlns:rdf="http://www.w3.org/1999/02/22-rdf-syntax-ns#"
   xmlns:svg="http://www.w3.org/2000/svg"
   xmlns="http://www.w3.org/2000/svg"
   xmlns:xlink="http://www.w3.org/1999/xlink"
   xmlns:sodipodi="http://sodipodi.sourceforge.net/DTD/sodipodi-0.dtd"
   xmlns:inkscape="http://www.inkscape.org/namespaces/inkscape"
   id="uuid-8cf80f7a-a1af-460c-9802-7c51b579dfd0"
   data-name="Layer 5"
   viewBox="0 0 786.72399 242.65434"
   version="1.1"
   sodipodi:docname="novaforge_banner_dark.svg"
   width="786.724"
   height="242.65433"
   inkscape:version="1.0.2-2 (e86c870879, 2021-01-15)">
  <metadata
     id="metadata1056">
    <rdf:RDF>
      <cc:Work
         rdf:about="">
        <dc:format>image/svg+xml</dc:format>
        <dc:type
           rdf:resource="http://purl.org/dc/dcmitype/StillImage" />
        <dc:title></dc:title>
      </cc:Work>
    </rdf:RDF>
  </metadata>
  <sodipodi:namedview
     pagecolor="#ffffff"
     bordercolor="#666666"
     borderopacity="1"
     objecttolerance="10"
     gridtolerance="10"
     guidetolerance="10"
     inkscape:pageopacity="0"
     inkscape:pageshadow="2"
     inkscape:window-width="1920"
     inkscape:window-height="1017"
     id="namedview1054"
     showgrid="false"
     inkscape:zoom="0.86815144"
     inkscape:cx="477.1868"
     inkscape:cy="-32.800812"
     inkscape:window-x="2152"
     inkscape:window-y="2757"
     inkscape:window-maximized="1"
     inkscape:current-layer="uuid-8cf80f7a-a1af-460c-9802-7c51b579dfd0"
     inkscape:document-rotation="0" />
  <defs
     id="defs1019">
    <style
       id="style995">
      .uuid-e737576a-3c0e-4307-bbc4-164f321f007e {
        fill: url(#uuid-8f17eb23-258b-4055-9bdf-00c15f37963a);
      }

      .uuid-9650bfd1-420a-4d97-8f70-129be099bd87 {
        fill: url(#uuid-8843ed0a-9852-493b-b980-08e4e5bb7b0b);
      }

      .uuid-381a92ff-faf3-48c1-9a9b-aa920817b80d {
        fill: url(#uuid-0a1a9f79-ce04-490b-bbe1-39cbcc6d49a3);
      }

      .uuid-2985d132-87bb-41e4-86ca-f3ff5b3c3cdf {
        fill: url(#uuid-e68b51a9-d525-469e-9618-8dccc6ad8425);
      }

      .uuid-d7777f12-56be-4390-9af5-c8ff904bea1d {
        fill: url(#uuid-294aa609-5a71-4138-8a6f-4cc50d8a9d82);
      }

      .uuid-5dd7a289-0d3e-494a-a566-8b8bce06464a {
        fill: url(#uuid-f90485de-cbb4-49da-b771-e744cd23edee);
      }

      .uuid-647f7aa0-07ea-4df9-a132-7ae306ba1ded {
        fill: url(#uuid-ad42605c-50ee-4baf-bcdc-c5ed5a8cf71d);
      }

      .uuid-45b5f823-aa85-4a80-bed9-eec5862573f5 {
        fill: url(#uuid-7504d1b7-eeb1-47fd-aac4-a78b07a9c9a6);
      }

      .uuid-22f45913-931a-48e9-b3b0-6042825d4cf0 {
        fill: url(#uuid-1c2d4762-4e36-4d05-a490-bdf2b4cdf96c);
      }

      .uuid-98d622fd-1f9c-4d1e-8c16-3ab9dd6424fc {
        fill: url(#uuid-ac59e2e6-6354-4bd2-8dc5-cb416f2b3d65);
      }

      .uuid-da9639c9-b867-4362-8998-da50290487f3 {
        fill: url(#uuid-0c689619-a210-4ddc-87ff-50f91afe76fb);
      }

      .uuid-56986763-700d-48ff-b889-34c04e2754c0 {
        fill: url(#uuid-6b5c004f-d87e-49e3-ac7b-8afdf33654b6);
      }

      .uuid-8ca0a171-90e3-418c-9fc0-0543c731a49e {
        fill: url(#uuid-3325f7e2-2cbf-4f38-9bef-939ef7f8e2e9);
      }

      .uuid-595f113e-2310-41bb-8f77-af438494ed36 {
        fill: url(#uuid-3e305c01-bbe1-4c98-ae30-372a429af0ac);
      }

      .uuid-7f099571-087d-4904-b99e-cdbde512056b {
        fill: url(#uuid-8d01a943-801e-4412-9b47-803116aa25e2);
      }

      .uuid-141b9b31-c65a-432e-b513-2772f71182d5 {
        fill: url(#uuid-f41a6504-9d64-4baf-9c07-9c128425634a);
      }
    </style>
    <linearGradient
       id="uuid-8843ed0a-9852-493b-b980-08e4e5bb7b0b"
       x1="813.21301"
       y1="234.994"
       x2="1661.943"
       y2="501.53699"
       gradientUnits="userSpaceOnUse">
      <stop
         offset="0"
         stop-color="#8dc1dd"
         id="stop997" />
      <stop
         offset=".577"
         stop-color="#7daae4"
         id="stop999" />
      <stop
         offset="1"
         stop-color="#759fe8"
         id="stop1001" />
    </linearGradient>
    <linearGradient
       id="uuid-294aa609-5a71-4138-8a6f-4cc50d8a9d82"
       x1="819.07098"
       y1="216.339"
       x2="1667.801"
       y2="482.883"
       xlink:href="#uuid-8843ed0a-9852-493b-b980-08e4e5bb7b0b"
       gradientTransform="translate(-853.909,-197.84567)" />
    <linearGradient
       id="uuid-f90485de-cbb4-49da-b771-e744cd23edee"
       x1="825.42603"
       y1="196.105"
       x2="1674.156"
       y2="462.64899"
       xlink:href="#uuid-8843ed0a-9852-493b-b980-08e4e5bb7b0b"
       gradientTransform="translate(-853.909,-197.84567)" />
    <linearGradient
       id="uuid-f41a6504-9d64-4baf-9c07-9c128425634a"
       x1="812.034"
       y1="238.746"
       x2="1660.764"
       y2="505.29001"
       xlink:href="#uuid-8843ed0a-9852-493b-b980-08e4e5bb7b0b"
       gradientTransform="translate(-853.909,-197.84567)" />
    <linearGradient
       id="uuid-0c689619-a210-4ddc-87ff-50f91afe76fb"
       x1="826.22302"
       y1="193.56599"
       x2="1674.953"
       y2="460.10901"
       xlink:href="#uuid-8843ed0a-9852-493b-b980-08e4e5bb7b0b"
       gradientTransform="translate(-853.909,-197.84567)" />
    <linearGradient
       id="uuid-8d01a943-801e-4412-9b47-803116aa25e2"
       x1="831.20099"
       y1="177.714"
       x2="1679.931"
       y2="444.258"
       xlink:href="#uuid-8843ed0a-9852-493b-b980-08e4e5bb7b0b"
       gradientTransform="translate(-853.909,-197.84567)" />
    <linearGradient
       id="uuid-1c2d4762-4e36-4d05-a490-bdf2b4cdf96c"
       x1="837.453"
       y1="157.80901"
       x2="1686.183"
       y2="424.35199"
       xlink:href="#uuid-8843ed0a-9852-493b-b980-08e4e5bb7b0b"
       gradientTransform="translate(-853.909,-197.84567)" />
    <linearGradient
       id="uuid-6b5c004f-d87e-49e3-ac7b-8afdf33654b6"
       x1="842.53003"
       y1="141.642"
       x2="1691.26"
       y2="408.185"
       xlink:href="#uuid-8843ed0a-9852-493b-b980-08e4e5bb7b0b" />
    <linearGradient
       id="uuid-7504d1b7-eeb1-47fd-aac4-a78b07a9c9a6"
       x1="845.09802"
       y1="133.464"
       x2="1693.828"
       y2="400.00699"
       xlink:href="#uuid-8843ed0a-9852-493b-b980-08e4e5bb7b0b"
       gradientTransform="translate(-853.909,-197.84567)" />
    <linearGradient
       id="uuid-3e305c01-bbe1-4c98-ae30-372a429af0ac"
       x1="838.422"
       y1="154.72301"
       x2="1687.152"
       y2="421.26599"
       xlink:href="#uuid-8843ed0a-9852-493b-b980-08e4e5bb7b0b"
       gradientTransform="translate(-853.909,-197.84567)" />
    <linearGradient
       id="uuid-0a1a9f79-ce04-490b-bbe1-39cbcc6d49a3"
       x1="823.28998"
       y1="202.905"
       x2="1672.02"
       y2="469.448"
       xlink:href="#uuid-8843ed0a-9852-493b-b980-08e4e5bb7b0b"
       gradientTransform="translate(-853.909,-197.84567)" />
    <linearGradient
       id="uuid-ad42605c-50ee-4baf-bcdc-c5ed5a8cf71d"
       x1="828.71002"
       y1="185.64799"
       x2="1677.4399"
       y2="452.19199"
       xlink:href="#uuid-8843ed0a-9852-493b-b980-08e4e5bb7b0b" />
    <linearGradient
       id="uuid-e68b51a9-d525-469e-9618-8dccc6ad8425"
       x1="830.448"
       y1="180.11099"
       x2="1679.179"
       y2="446.655"
       xlink:href="#uuid-8843ed0a-9852-493b-b980-08e4e5bb7b0b" />
    <linearGradient
       id="uuid-8f17eb23-258b-4055-9bdf-00c15f37963a"
       x1="832.18701"
       y1="174.57401"
       x2="1680.917"
       y2="441.11801"
       xlink:href="#uuid-8843ed0a-9852-493b-b980-08e4e5bb7b0b" />
    <linearGradient
       id="uuid-ac59e2e6-6354-4bd2-8dc5-cb416f2b3d65"
       x1="831.86902"
       y1="175.589"
       x2="1680.599"
       y2="442.13199"
       gradientTransform="rotate(71.695,563.8759,-492.0354)"
       xlink:href="#uuid-8843ed0a-9852-493b-b980-08e4e5bb7b0b" />
    <linearGradient
       id="uuid-3325f7e2-2cbf-4f38-9bef-939ef7f8e2e9"
       x1="858.12299"
       y1="91.990997"
       x2="1706.853"
       y2="358.535"
       xlink:href="#uuid-8843ed0a-9852-493b-b980-08e4e5bb7b0b"
       gradientTransform="translate(-853.909,-197.84567)" />
  </defs>
  <path
     class="uuid-9650bfd1-420a-4d97-8f70-129be099bd87"
     d="m 46.796,69.234328 c -0.857,3.045 -1.678,6.125 -2.44,9.155 -0.088,0.352 -0.177,0.705 -0.265,1.06 l -1.431,-4.776 -15.817,-48.795 -7.169,0.037 -19.674,69.474 8.295,0.044 12.43,-43.917 c 0.864,-3.052 1.684,-6.055 2.437,-8.924 0.056,-0.215 0.113,-0.432 0.169,-0.648 l 1.396,4.667 15.763,48.993 7.312,0.038 19.683,-69.979 -8.438,0.044 -12.25,43.528 z"
     id="path1021"
     style="fill:#f0f0f0;fill-opacity:1" />
  <path
     class="uuid-d7777f12-56be-4390-9af5-c8ff904bea1d"
     d="m 123.098,28.933328 v 0 c -3.703,-3.083 -8.487,-4.645 -14.226,-4.645 -0.057,0 -0.115,0 -0.172,0 -5.636,0.031 -11.108,1.557 -16.267,4.534 -5.068,2.926 -9.605,7.072 -13.485,12.321 -3.854,5.213 -6.823,11.475 -8.826,18.61 -2.006,7.148 -2.555,13.529 -1.632,18.964 0.959,5.663 3.301,10.164 6.957,13.375 3.687,3.243 8.507,4.903 14.328,4.935 0.057,0 0.114,0 0.171,0 5.604,0 11.061,-1.52 16.223,-4.517 5.131,-2.979 9.733,-7.218 13.678,-12.6 3.918,-5.348 6.912,-11.678 8.898,-18.816 2.021,-7.268 2.542,-13.68 1.547,-19.06 -1.035,-5.579 -3.455,-9.988 -7.193,-13.103 z m -2.757,30.823 c -1.66,5.966 -4.062,11.217 -7.136,15.605 -3.037,4.333 -6.557,7.725 -10.463,10.08 -3.769,2.274 -7.787,3.427 -11.946,3.427 -0.037,0 -0.075,0 -0.113,0 -4.009,-0.02 -7.099,-1.077 -9.446,-3.233 -2.375,-2.18 -3.803,-5.218 -4.365,-9.287 -0.589,-4.25 -0.054,-9.378 1.591,-15.244 1.659,-5.917 4.035,-11.093 7.06,-15.384 2.987,-4.237 6.469,-7.553 10.348,-9.855 3.804,-2.256 7.833,-3.411 11.975,-3.432 0.041,0 0.082,0 0.123,0 4.029,0 7.126,1 9.462,3.052 2.382,2.096 3.832,5.059 4.433,9.057 0.629,4.201 0.117,9.32 -1.524,15.215 z"
     id="path1023"
     style="fill:#f0f0f0;fill-opacity:1" />
  <path
     class="uuid-5dd7a289-0d3e-494a-a566-8b8bce06464a"
     d="m 185.975,25.056328 -24.592,40.708 c -2.496,4.075 -4.754,7.798 -6.774,11.171 -0.956,1.595 -1.977,3.277 -3.056,5.035 -0.076,-1.347 -0.141,-2.643 -0.195,-3.883 -0.15,-3.366 -0.311,-7.08 -0.484,-11.162 l -2.157,-41.672 -8.625,0.046 4.321,70.832 7.275,0.038 43.743,-71.163 -9.455,0.05 z"
     id="path1025"
     style="fill:#f0f0f0;fill-opacity:1" />
  <path
     class="uuid-141b9b31-c65a-432e-b513-2772f71182d5"
     d="m 517.038,157.07733 h 32.249 l 2.213,-8.031 h -40.838 l -17.373,63.116 -55.332,-0.519 -4.74,3.291 c -18.654,12.859 -40.539,19.656 -63.289,19.656 -61.568,0 -111.657,-50.089 -111.657,-111.656 v -2.5 h -8.063 v 2.5 c 0,66.014 53.706,119.72 119.72,119.72 23.307,0 48.581,-8.12 69.47,-22.3 l 51.528,0.357 -0.011,0.04 h 8.593 l 9.056,-32.894 h 27.196 l 2.187,-7.94 H 510.75 l 6.288,-22.841 z"
     id="path1027"
     style="fill:#f0f0f0;fill-opacity:1" />
  <path
     class="uuid-da9639c9-b867-4362-8998-da50290487f3"
     d="m 598.649,152.67633 v 0 c -3.749,-3.202 -8.618,-4.825 -14.472,-4.825 -5.69,0 -11.218,1.535 -16.431,4.564 -5.127,2.979 -9.717,7.213 -13.641,12.586 -3.896,5.335 -6.893,11.744 -8.904,19.05 -2.012,7.31 -2.549,13.827 -1.595,19.371 0.988,5.761 3.37,10.331 7.077,13.583 3.731,3.278 8.601,4.94 14.473,4.94 5.7,0 11.242,-1.57 16.475,-4.667 5.141,-3.042 9.748,-7.354 13.693,-12.815 3.919,-5.426 6.916,-11.848 8.909,-19.086 2.029,-7.371 2.561,-13.88 1.578,-19.345 -1.021,-5.673 -3.431,-10.167 -7.162,-13.356 z m -2.821,31.375 c -1.671,6.067 -4.081,11.409 -7.165,15.873 -3.046,4.407 -6.577,7.862 -10.498,10.271 -3.819,2.347 -7.898,3.536 -12.124,3.536 -4.045,0 -7.168,-1.062 -9.547,-3.248 -2.419,-2.219 -3.878,-5.321 -4.462,-9.485 -0.611,-4.352 -0.083,-9.606 1.572,-15.619 1.671,-6.069 4.071,-11.377 7.135,-15.774 3.023,-4.341 6.547,-7.731 10.472,-10.079 3.841,-2.295 7.905,-3.459 12.08,-3.459 4.113,0 7.265,1.037 9.634,3.171 2.397,2.159 3.854,5.201 4.452,9.299 0.625,4.289 0.104,9.509 -1.549,15.516 z"
     id="path1029"
     style="fill:#f0f0f0;fill-opacity:1" />
  <path
     class="uuid-7f099571-087d-4904-b99e-cdbde512056b"
     d="m 666.412,157.83733 c -1.317,-3.138 -3.772,-5.447 -7.296,-6.865 v 0 c -3.184,-1.278 -7.184,-1.926 -11.89,-1.926 h -20.373 l -19.739,71.706 h 8.586 l 8.65,-31.424 h 11.036 l 10.222,31.424 h 9.196 l -10.296,-32.038 c 2.087,-0.371 4.064,-0.912 5.908,-1.619 3.941,-1.51 7.328,-3.78 10.066,-6.747 2.75,-2.979 4.743,-6.665 5.924,-10.957 1.294,-4.702 1.297,-8.481 0.01,-11.554 z m -8.504,10.226 v 0 c -1.256,4.562 -3.539,7.828 -6.981,9.984 -3.538,2.217 -8.182,3.341 -13.801,3.341 h -10.593 l 6.692,-24.312 h 11.969 c 5.524,0 9.457,0.888 11.688,2.638 0.677,0.53 2.734,2.145 1.025,8.349 z"
     id="path1031"
     style="fill:#f0f0f0;fill-opacity:1" />
  <path
     class="uuid-22f45913-931a-48e9-b3b0-6042825d4cf0"
     d="m 684.578,169.63133 c 3.104,-4.334 6.8,-7.723 10.984,-10.072 4.13,-2.317 8.661,-3.493 13.471,-3.493 3.229,0 5.733,0.561 7.444,1.666 1.812,1.173 3.234,2.568 4.229,4.148 l 1.524,2.424 6.652,-5.564 -1.227,-1.862 c -1.373,-2.084 -3.393,-4.097 -6.004,-5.981 -2.801,-2.021 -6.749,-3.045 -11.734,-3.045 -4.711,0 -9.263,0.863 -13.529,2.567 -4.239,1.692 -8.214,4.161 -11.812,7.339 -3.573,3.154 -6.735,6.998 -9.399,11.427 -2.648,4.406 -4.753,9.408 -6.256,14.867 -2.012,7.31 -2.549,13.827 -1.595,19.371 0.992,5.781 3.465,10.364 7.35,13.62 3.877,3.254 8.995,4.903 15.212,4.903 4.629,0 8.979,-0.748 12.93,-2.225 3.926,-1.469 7.383,-3.414 10.274,-5.784 l 0.614,-0.504 8.24,-29.933 h -25.218 l -2.209,8.032 h 16.446 l -4.922,17.878 c -1.747,1.237 -3.874,2.247 -6.337,3.007 -2.824,0.871 -5.738,1.313 -8.659,1.313 -4.501,0 -8.054,-1.107 -10.561,-3.292 -2.549,-2.218 -4.083,-5.312 -4.69,-9.457 -0.64,-4.347 -0.125,-9.597 1.528,-15.604 1.668,-6.057 4.108,-11.354 7.253,-15.747 z"
     id="path1033"
     style="fill:#f0f0f0;fill-opacity:1" />
  <polygon
     class="uuid-56986763-700d-48ff-b889-34c04e2754c0"
     points="1599.612,346.892 1579.872,418.598 1621.902,418.598 1624.114,410.565 1590.669,410.565 1597.842,384.51 1625.039,384.51 1627.25,376.477 1600.053,376.477 1605.986,354.923 1638.42,354.923 1640.633,346.892 "
     id="polygon1035"
     style="fill:#f0f0f0;fill-opacity:1"
     transform="translate(-853.909,-197.84567)" />
  <path
     class="uuid-45b5f823-aa85-4a80-bed9-eec5862573f5"
     d="m 489.648,125.43433 v -2.5 c 0,-29.478002 -9.876,-54.369002 -27.607,-75.253002 -3.182,0.07 -6.472,0.521 -8.245,2.807 17.788,19.785 27.79,43.809 27.79,72.446002 v 2.5 z"
     id="path1037"
     style="fill:#f0f0f0;fill-opacity:1" />
  <path
     class="uuid-595f113e-2310-41bb-8f77-af438494ed36"
     d="m 261.395,96.558328 0.482,-1.878 c 12.618,-49.106 57.05,-83.403 108.051,-83.403 16.934,0 30.017,1.8 44.41,8.577 2.516,-0.508 11.972,-1.585 13.752,-1.712 -17.7,-10.346 -36.222,-14.928 -58.162,-14.928 -26.285,0 -51.25,8.362 -72.193,24.183 -20.401,15.411 -35.027,36.407 -42.389,60.816 l -26.064,-0.095 -6.053,-63.248 -6.756,0.035 -45.795,71.354 9.393,0.049 15.023,-23.596 24.143,0.037 1.806,21.499 0.085,0.679 v 1.631 h 40.268 z m -61.257,-31.77 6.006,-9.433 c 2.551,-4.028 4.97,-7.858 7.256,-11.492 1.022,-1.625 2.062,-3.312 3.115,-5.055 0.075,1.328 0.158,2.624 0.25,3.881 0.265,3.644 0.572,7.521 0.915,11.519 l 0.89,10.598 -18.432,-0.019 z"
     id="path1039"
     style="fill:#f0f0f0;fill-opacity:1" />
  <path
     class="uuid-381a92ff-faf3-48c1-9a9b-aa920817b80d"
     d="m 451.925,99.581328 c 0.208,-0.08 0.941,-0.289 1.427,-0.428 4.456,-1.275 10.001,-2.861 10.001,-7.544 v -9.127 l -2.78,-3.34 H 356.184 v 5.112 h -13.827 l -2.612,7.688 7.635,2.594 0.753,-2.219 h 16.114 v -5.112 h 91.044 v 2.832 c -0.684,0.284 -1.924,0.727 -4.156,1.365 -0.874,0.25 -1.564,0.448 -2.101,0.654 -19.307,7.424 -51.855,24.257002 -52.932,53.573002 -0.598,16.292 9.695,27.497 20.021,32.873 v 9.021 H 398.8 c -0.434,-0.493 -0.847,-0.899 -1.326,-1.231 -12.208,-8.49 -35.39,-9.291 -47.698,-1.648 -0.9,0.558 -1.859,1.468 -3.22,2.792 -0.03,0.028 -0.06,0.058 -0.091,0.088 h -17.643 v -9.154 c 7.503,-4.126 15.648,-9.56 21.035,-18.266 4.593,-7.42 7.974,-19.308 2.383,-28.388 -4.302,-6.983 -11.113,-6.45 -16.086,-6.06 -0.878,0.068 -1.728,0.135 -2.535,0.164 l -0.525,-1.805 -3.108,0.083 c -17.917,0.463 -35.127,-6.565 -45.993,-18.828 l -0.961,-1.076 c -1.33,-1.484 -4.55,-5.076002 -5.717,-6.835002 l 1.313,-1.919 -6.655,-4.539 -1.497,2.174 c -0.534,0.777 -1.427,2.077 -1.552,3.764 -0.075,1.005 -0.304,4.065002 9.035,13.780002 11.704,13.207 29.947,21.182 49.11,21.548 l 0.351,1.204 2.596,0.355 c 2.313,0.316 4.574,0.14 6.767,-0.032 4.643,-0.361 6.948,-0.421 8.593,2.25 3.41,5.539 1.161,14.206 -2.373,19.916 -4.772,7.71 -12.479,12.506 -20.098,16.539 l -2.145,1.136 v 22.051 h 27.234 c 1.745,0 2.611,-0.842 4.183,-2.371 0.382,-0.371 1.544,-1.502 1.851,-1.722 9.397,-5.833 29.186,-5.149 38.672,1.299 0.185,0.201 0.438,0.521 0.587,0.704 0.718,0.882 1.702,2.09 3.667,2.09 h 27.234 v -22.27 l -2.43,-1.054 c -8.43,-3.649 -18.096,-12.737 -17.597,-26.337 0.905,-24.685 30.314,-39.63 47.766,-46.342002 z"
     id="path1041"
     style="fill:#f0f0f0;fill-opacity:1" />
  <polygon
     class="uuid-647f7aa0-07ea-4df9-a132-7ae306ba1ded"
     points="1140.498,290.253 1144.216,290.253 1148.069,276.915 1144.224,276.915 1142.32,283.989 1140.277,276.915 1136.958,276.915 1134.947,283.878 1133.003,276.915 1129.065,276.915 1133.048,290.253 1136.631,290.253 1138.543,283.446 "
     id="polygon1043"
     style="fill:#f0f0f0;fill-opacity:1"
     transform="translate(-853.909,-197.84567)" />
  <polygon
     class="uuid-2985d132-87bb-41e4-86ca-f3ff5b3c3cdf"
     points="1163.586,290.253 1167.438,276.915 1163.595,276.915 1161.69,283.989 1159.646,276.915 1156.328,276.915 1154.316,283.878 1152.373,276.915 1148.435,276.915 1152.418,290.253 1156.001,290.253 1157.914,283.447 1159.868,290.253 "
     id="polygon1045"
     style="fill:#f0f0f0;fill-opacity:1"
     transform="translate(-853.909,-197.84567)" />
  <polygon
     class="uuid-e737576a-3c0e-4307-bbc4-164f321f007e"
     points="1175.698,276.915 1173.686,283.878 1171.744,276.915 1167.805,276.915 1171.788,290.253 1175.371,290.253 1177.284,283.449 1179.237,290.253 1182.956,290.253 1186.809,276.915 1182.964,276.915 1181.061,283.988 1179.017,276.915 "
     id="polygon1047"
     style="fill:#f0f0f0;fill-opacity:1"
     transform="translate(-853.909,-197.84567)" />
  <rect
     class="uuid-98d622fd-1f9c-4d1e-8c16-3ab9dd6424fc"
     x="17.61092"
     y="344.18808"
     width="4.5679998"
     height="4.5679998"
     transform="rotate(-71.695)"
     id="rect1049"
     style="fill:#f0f0f0;fill-opacity:1" />
  <path
     class="uuid-8ca0a171-90e3-418c-9fc0-0543c731a49e"
     d="m 413.023,24.701328 -1.481,4.194 0.963,1.66 c 0.453,0.779 1.14,1.382 1.958,1.735 1.54,0.833 3.209,1.546 4.826,2.237 0.596,0.255 1.183,0.505 1.743,0.755 2.85,1.269 5.713,2.51 8.576,3.75 1.317,0.571 2.634,1.141 3.949,1.715 0.311,2.364 0.611,4.731 0.91,7.097 0.379,2.997 0.758,5.994 1.162,8.988 l 0.143,1.099 c 0.104,0.817 0.21,1.634 0.342,2.489 0.15,1.057 0.463,3.256 2.774,4.154 0.299,0.117 0.867,0.293 1.564,0.293 1.208,0 2.805,-0.529 4.067,-2.812 0.447,-0.795 0.822,-1.634 1.154,-2.374 0.103,-0.231 0.205,-0.458 0.306,-0.68 1.324,-2.873 2.582,-5.806 3.798,-8.641 0.967,-2.255 1.96,-4.572 2.981,-6.841 1.871,-0.248 3.744,-0.485 5.618,-0.723 2.29,-0.29 4.579,-0.581 6.866,-0.889 l 1.078,-0.145 c 2.393,-0.321 4.868,-0.652 7.326,-1.092 l 2.362,-0.422 1.457,-4.129 -0.961,-1.66 c -0.452,-0.78 -1.141,-1.384 -1.959,-1.737 -1.208,-0.65 -2.484,-1.202 -3.721,-1.737 -0.447,-0.193 -0.886,-0.384 -1.308,-0.573 -2.732,-1.228 -5.514,-2.439 -8.204,-3.61 -1.897,-0.826 -3.842,-1.673 -5.772,-2.527 -0.149,-1.165 -0.298,-2.329 -0.446,-3.494 -0.719,-5.654 -1.462,-11.501 -2.344,-17.255 l -0.393,-2.56799999 -2.484,-0.761 c -1.561,-0.479 -2.781,0.022 -3.369,0.363 -0.714,0.413 -1.286,1.03299999 -1.647,1.76699999 -0.137,0.252 -0.244,0.486 -0.33,0.673 l -0.061,0.131 c -0.673,1.386 -1.296,2.79 -1.898,4.149 l -0.558,1.255 c -1.058,2.367 -2.092,4.745 -3.127,7.123 -0.84,1.932 -1.701,3.913 -2.573,5.877 -1.921,0.252 -3.844,0.496 -5.767,0.741 -4.942,0.628 -10.052,1.278 -15.084,2.052 l -2.438,0.375 z m 18.565,5.782 c 2.705,-0.344 5.41,-0.688 8.111,-1.052 l 2.276,-0.307 0.943,-2.093 c 1.212,-2.689 2.403,-5.427 3.554,-8.074 0.012,-0.028 0.024,-0.056 0.036,-0.084 0.127,0.989 0.252,1.973 0.376,2.951 0.247,1.94 0.494,3.88 0.745,5.818 l 0.299,2.294 2.111,0.947 c 2.654,1.191 5.356,2.367 7.968,3.505 0.067,0.029 0.134,0.058 0.201,0.088 -0.291,0.037 -0.583,0.074 -0.873,0.111 -2.643,0.335 -5.285,0.67 -7.924,1.034 l -0.81,0.112 -0.706,0.411 c -1.269,0.739 -1.744,1.871 -1.96,2.393 -1.159,2.519 -2.268,5.083 -3.343,7.586 -0.371,-2.93 -0.743,-5.861 -1.141,-8.788 l -0.312,-2.299 -2.124,-0.933 c -2.035,-0.894 -4.075,-1.779 -6.115,-2.662 -0.667,-0.29 -1.335,-0.579 -2.003,-0.869 0.231,-0.029 0.462,-0.059 0.692,-0.088 z"
     id="path1051"
     style="fill:#f0f0f0;fill-opacity:1" />
</svg>
